<svg width="120" height="120" viewBox="0 0 120 120" fill="none" xmlns="http://www.w3.org/2000/svg">
  <rect width="120" height="120" rx="28" fill="url(#ellie-fav-bg)" />
  <g transform="translate(12, 14)">
    <ellipse cx="30" cy="42" rx="22" ry="28" fill="white" fill-opacity="0.55" />
    <ellipse cx="48" cy="38" rx="26" ry="24" fill="white" />
    <ellipse cx="62" cy="58" rx="28" ry="22" fill="white" />
    <rect x="42" y="70" width="11" height="20" rx="5.5" fill="white" />
    <rect x="56" y="72" width="11" height="18" rx="5.5" fill="white" />
    <rect x="70" y="70" width="11" height="20" rx="5.5" fill="white" />
    <rect x="82" y="72" width="11" height="16" rx="5.5" fill="white" fill-opacity="0.85" />
    <path d="M24 46C18 52 14 62 16 72C18 78 24 78 26 72C28 66 24 58 30 50" stroke="white" stroke-width="7" stroke-linecap="round" fill="none" />
    <circle cx="42" cy="32" r="4.5" fill="url(#ellie-fav-bg)" />
    <circle cx="43.5" cy="30.5" r="1.8" fill="white" />
    <ellipse cx="30" cy="40" rx="10" ry="14" fill="url(#ellie-fav-bg)" fill-opacity="0.2" />
    <path d="M88 50C94 44 96 38 92 34" stroke="white" stroke-width="3.5" stroke-linecap="round" fill="none" />
    <path d="M58 50C58 48 60 46 62 46C64 46 65 48 65 50C65 48 66 46 68 46C70 46 72 48 72 50C72 54 65 58 65 58C65 58 58 54 58 50Z" fill="url(#ellie-fav-bg)" fill-opacity="0.35" />
  </g>
  <defs>
    <linearGradient id="ellie-fav-bg" x1="0" y1="0" x2="120" y2="120" gradientUnits="userSpaceOnUse">
      <stop stop-color="hsl(35, 92%, 60%)" />
      <stop offset="1" stop-color="hsl(15, 85%, 60%)" />
    </linearGradient>
  </defs>
</svg>
