<svg width="120" height="120" viewBox="0 0 120 120" fill="none" xmlns="http://www.w3.org/2000/svg">
  <rect width="120" height="120" rx="32" fill="url(#ellie-fav-bg)" />
  <g transform="translate(18, 22)" fill="white" fill-opacity="0.95">
    <ellipse cx="42" cy="34" rx="28" ry="26" />
    <path d="M14 20C4 14 0 24 2 36C4 46 14 48 18 42C12 36 12 26 14 20Z" fill-opacity="0.7" />
    <ellipse cx="58" cy="52" rx="24" ry="20" />
    <rect x="40" y="62" width="10" height="16" rx="5" />
    <rect x="62" y="62" width="10" height="16" rx="5" />
    <path d="M26 44C22 48 18 56 20 62C22 66 26 66 28 62C30 58 28 52 32 48" stroke="white" stroke-width="5" stroke-linecap="round" fill="none" stroke-opacity="0.95" />
    <circle cx="38" cy="30" r="3.5" fill="url(#ellie-fav-bg)" />
    <circle cx="39.2" cy="28.8" r="1.2" fill="white" />
    <path d="M80 46C84 42 86 38 84 36" stroke="white" stroke-width="3" stroke-linecap="round" fill="none" stroke-opacity="0.7" />
    <path d="M56 44C56 42 58 40 60 40C62 40 63 42 63 44C63 42 64 40 66 40C68 40 70 42 70 44C70 48 63 52 63 52C63 52 56 48 56 44Z" fill="url(#ellie-fav-bg)" fill-opacity="0.4" />
  </g>
  <defs>
    <linearGradient id="ellie-fav-bg" x1="0" y1="0" x2="120" y2="120" gradientUnits="userSpaceOnUse">
      <stop stop-color="hsl(35, 92%, 60%)" />
      <stop offset="1" stop-color="hsl(15, 85%, 60%)" />
    </linearGradient>
  </defs>
</svg>
